<svg xmlns="http://www.w3.org/2000/svg" width="500" height="500" viewBox="0 0 500 500" version="1.1"><path d="M 217.500 5.483 C 212.550 6.167, 205.800 7.271, 202.500 7.936 C 199.200 8.601, 192 10.309, 186.500 11.730 C 181 13.152, 171.100 16.296, 164.500 18.717 C 157.900 21.138, 147.325 25.717, 141 28.893 C 134.675 32.069, 125.243 37.303, 120.040 40.524 C 114.837 43.746, 106.062 49.781, 100.540 53.936 C 95.018 58.092, 85.376 66.443, 79.114 72.496 C 72.852 78.548, 64.025 88, 59.499 93.500 C 54.973 99, 47.880 108.675, 43.736 115 C 39.593 121.325, 33.936 130.775, 31.166 136 C 28.396 141.225, 24.111 150.450, 21.643 156.500 C 19.176 162.550, 15.593 172.675, 13.682 179 C 11.771 185.325, 9.278 195.225, 8.142 201 C 7.006 206.775, 5.610 215.020, 5.038 219.322 C 4.467 223.625, 4 237.222, 4 249.538 C 4 264.371, 4.528 275.741, 5.564 283.216 C 6.424 289.422, 8.012 298.550, 9.093 303.500 C 10.175 308.450, 12.443 316.996, 14.134 322.491 C 15.824 327.985, 19.001 336.985, 21.193 342.491 C 23.385 347.996, 27.596 357.225, 30.551 363 C 33.505 368.775, 39.140 378.450, 43.072 384.500 C 47.003 390.550, 53.622 399.775, 57.780 405 C 61.938 410.225, 70.551 419.677, 76.920 426.005 C 83.289 432.333, 94 441.651, 100.723 446.711 C 107.445 451.771, 117.570 458.662, 123.223 462.024 C 128.875 465.387, 137.550 470.094, 142.500 472.486 C 147.450 474.877, 155.021 478.229, 159.324 479.936 C 163.627 481.642, 172.192 484.567, 178.357 486.436 C 184.522 488.304, 195.401 490.992, 202.533 492.408 C 209.665 493.823, 220.450 495.436, 226.500 495.990 C 232.550 496.545, 243.159 496.999, 250.076 496.999 C 256.993 497, 267.568 496.533, 273.576 495.963 C 279.584 495.392, 290.242 493.799, 297.261 492.421 C 304.279 491.043, 314.472 488.594, 319.911 486.979 C 325.349 485.363, 334.532 482.213, 340.316 479.979 C 346.099 477.745, 355.257 473.645, 360.666 470.869 C 366.075 468.093, 374.325 463.515, 379 460.695 C 383.675 457.876, 392.900 451.517, 399.500 446.565 C 406.100 441.613, 417.364 431.697, 424.530 424.530 C 431.697 417.364, 441.422 406.325, 446.143 400 C 450.863 393.675, 457.052 384.769, 459.895 380.209 C 462.739 375.649, 467.501 367.190, 470.477 361.411 C 473.454 355.632, 477.686 346.252, 479.881 340.568 C 482.077 334.883, 485.218 325.567, 486.860 319.866 C 488.503 314.165, 490.738 305.225, 491.828 300 C 492.918 294.775, 494.407 286.450, 495.136 281.500 C 495.938 276.060, 496.439 263.996, 496.403 251 C 496.362 236.173, 495.806 225.776, 494.611 217.500 C 493.657 210.900, 492.025 201.675, 490.983 197 C 489.942 192.325, 487.684 183.775, 485.966 178 C 484.249 172.225, 480.602 162.041, 477.862 155.369 C 475.122 148.697, 470.174 138.372, 466.866 132.424 C 463.559 126.477, 458.112 117.535, 454.761 112.555 C 451.411 107.575, 446.204 100.350, 443.189 96.500 C 440.174 92.650, 431.136 82.973, 423.104 74.996 C 415.072 67.018, 404.132 57.219, 398.794 53.219 C 393.456 49.219, 383.781 42.716, 377.294 38.769 C 370.807 34.822, 359.875 29.031, 353 25.900 C 346.125 22.769, 335.100 18.403, 328.500 16.196 C 321.900 13.990, 311.113 10.983, 304.530 9.514 C 297.946 8.045, 287.821 6.212, 282.030 5.441 C 275.382 4.556, 263.205 4.076, 249 4.140 C 236.625 4.195, 222.450 4.800, 217.500 5.483 M 201 249.878 C 201 310.445, 201.150 360, 201.333 360 C 201.516 360, 234.605 335.296, 274.864 305.102 L 348.064 250.203 275.782 195.948 C 236.027 166.108, 202.938 141.257, 202.250 140.724 C 201.252 139.950, 201 161.930, 201 249.878" stroke="none" fill="#7cdb55" fill-rule="evenodd"/></svg>